<?xml version="1.0" encoding="utf-8"?>
<!-- Generator: Adobe Illustrator 16.0.0, SVG Export Plug-In . SVG Version: 6.00 Build 0)  -->
<!DOCTYPE svg PUBLIC "-//W3C//DTD SVG 1.1//EN" "http://www.w3.org/Graphics/SVG/1.1/DTD/svg11.dtd">
<svg version="1.1" id="Layer_1" xmlns="http://www.w3.org/2000/svg" xmlns:xlink="http://www.w3.org/1999/xlink" x="0px" y="0px"
	 width="512px" height="512px" viewBox="0 0 512 512" enable-background="new 0 0 512 512" xml:space="preserve">
<g>
	<linearGradient id="SVGID_1_" gradientUnits="userSpaceOnUse" x1="19.3491" y1="19.3491" x2="525.5673" y2="525.5673">
		<stop  offset="0" style="stop-color:#3BB34A"/>
		<stop  offset="1" style="stop-color:#29ABE2"/>
	</linearGradient>
	<path fill="url(#SVGID_1_)" d="M506.766,493.139c0,7.525-6.102,13.627-13.627,13.627H18.861c-7.526,0-13.626-6.102-13.626-13.627
		V18.861c0-7.525,6.101-13.626,13.626-13.626h474.278c7.525,0,13.627,6.101,13.627,13.626V493.139z"/>
	<g>
		<path fill="#FFFFFF" d="M201.628,226.242c-0.81,0-1.619-0.311-2.238-0.927l-25.33-25.33c-1.236-1.23-1.236-3.241,0-4.475
			l25.33-25.33c1.231-1.233,3.24-1.233,4.477,0c1.229,1.234,1.229,3.244,0,4.478l-23.092,23.088l23.092,23.091
			c1.229,1.231,1.229,3.24,0,4.478c-0.625,0.616-1.435,0.92-2.245,0.92L201.628,226.242z"/>
		<path fill="#FFFFFF" d="M310.375,226.242c-0.811,0-1.62-0.311-2.238-0.927c-1.238-1.231-1.238-3.241,0-4.478l23.085-23.084
			l-23.085-23.088c-1.238-1.234-1.238-3.244,0-4.477c1.23-1.234,3.24-1.234,4.477,0l25.33,25.33c1.23,1.233,1.23,3.243,0,4.48
			l-25.33,25.329c-0.624,0.619-1.434,0.923-2.244,0.923L310.375,226.242z"/>
		<path fill="#FFFFFF" d="M240.171,226.242c-0.576,0-1.15-0.162-1.682-0.481c-1.479-0.928-1.93-2.883-1.001-4.367l31.661-50.656
			c0.928-1.481,2.883-1.929,4.366-1.004c1.479,0.925,1.93,2.881,1.002,4.362l-31.662,50.663
			C242.255,225.717,241.223,226.242,240.171,226.242z"/>
	</g>
	<path fill="#FFFFFF" d="M443.496,50.007H68.503c-10.215,0-18.496,8.281-18.496,18.496v374.993c0,10.216,8.281,18.497,18.496,18.497
		h374.993c10.214,0,18.497-8.281,18.497-18.497V68.503C461.993,58.288,453.71,50.007,443.496,50.007z M419.689,76.58
		c5.881,0,10.647,4.767,10.647,10.647c0,5.881-4.767,10.647-10.647,10.647s-10.647-4.767-10.647-10.647
		C409.042,81.347,413.809,76.58,419.689,76.58z M144.697,76.58h251.741v21.294H144.697V76.58z M432.046,420.751v11.26l0,0H79.97l0,0
		v-11.26V126.584h352.076V420.751z"/>
	<g>
		<circle fill="#FFFFFF" cx="117.162" cy="109.178" r="42.258"/>
		<g>
			<path fill="#2E2A25" d="M116.623,79.062c-16.63,0-30.11,13.483-30.11,30.116c0,16.633,13.48,30.116,30.11,30.116
				c16.627,0,30.106-13.483,30.106-30.116C146.729,92.545,133.25,79.062,116.623,79.062"/>
			<path fill="#4296B4" d="M118.969,126.427c0,1.427-0.608,3.061-2.345,3.061c-1.736,0-2.247-1.633-2.247-3.061v-4.332
				c-4.492-2.055-8.914-4.827-12.959-8.277v12.098c0,8.776,6.941,13.165,15.206,13.165c8.009,0,15.037-4.226,15.296-12.675
				c-4.08-0.086-8.498-0.919-12.952-2.465"/>
			<path fill="#4296B4" d="M127.128,115.83h-8.159v0.006c1.94,1.032,3.827,1.604,5.549,1.6
				C126.417,117.436,127.14,116.803,127.128,115.83"/>
			<path fill="#4296B4" d="M108.553,99.874c-5.313,0.008-1.483,5.202,2.132,9.178c1.208,1.326,2.446,2.535,3.692,3.594v-10.929
				c-0.303-0.179-0.612-0.348-0.92-0.501C111.757,100.319,110.122,99.871,108.553,99.874"/>
			<path fill="#4296B4" d="M114.378,91.928c0-1.429,0.511-3.064,2.247-3.064c1.735,0,2.345,1.635,2.345,3.064v3.288
				c2.591,1.214,5.171,2.707,7.675,4.504h5.287v-7.28c0-8.777-7.142-13.167-15.306-13.167c-7.773,0-14.372,3.881-15.13,11.642
				c3.963,0.113,8.376,0.876,12.884,2.438"/>
			<path fill="#63A70A" d="M139.804,112.408l-14.309,0.022c0.959,1.272,1.618,2.488,1.633,3.4h4.8v10.086
				c0,0.166-0.002,0.33-0.008,0.49c0.255,0.006,0.504,0.009,0.756,0.009c4.972-0.009,8.735-0.975,10.294-3.163
				C144.545,121.002,143.794,117.475,139.804,112.408"/>
			<path fill="#63A70A" d="M101.494,90.914c-0.37-0.013-0.735-0.014-1.097-0.014c-11.828,0.018-14.333,6.677-3.941,18.109
				c1.565,1.727,3.232,3.332,4.963,4.809V92.44C101.418,91.914,101.444,91.407,101.494,90.914"/>
			<path fill="#63A70A" d="M118.969,95.216c-1.529-0.716-3.064-1.334-4.591-1.862v8.364c1.314,0.774,2.582,1.758,3.726,2.958
				l14.378-0.024c-1.873-1.85-3.83-3.489-5.837-4.931h-7.675"/>
			<path fill="#63A70A" d="M118.969,123.94v-8.104c-1.509-0.804-3.056-1.885-4.591-3.189v9.446
				C115.906,122.792,117.44,123.408,118.969,123.94"/>
			<path fill="#6EC4E9" d="M114.378,112.646c-1.246-1.059-2.486-2.268-3.692-3.593c-3.615-3.976-7.445-9.17-2.132-9.178
				c1.568-0.003,3.204,0.445,4.905,1.341c0.308,0.154,0.617,0.322,0.92,0.501v-8.363c-4.507-1.562-8.92-2.327-12.884-2.439
				c-0.05,0.494-0.076,1-0.076,1.526v21.379c4.046,3.449,8.468,6.221,12.959,8.275"/>
			<path fill="#6EC4E9" d="M118.969,99.72h7.675c-2.505-1.797-5.084-3.289-7.675-4.504"/>
			<path fill="#6EC4E9" d="M131.928,115.83h-4.8c0.012,0.973-0.711,1.606-2.609,1.606c-1.726,0.003-3.609-0.568-5.55-1.6v8.105
				c4.455,1.543,8.873,2.378,12.951,2.465c0.006-0.162,0.008-0.324,0.008-0.49"/>
			<path fill="#2E2A25" d="M149.893,128.976c-0.523,0.526-1.16,0.792-1.905,0.792c-0.744,0-1.377-0.265-1.899-0.792
				c-0.521-0.525-0.782-1.161-0.782-1.909c0-0.737,0.264-1.37,0.789-1.897c0.522-0.521,1.153-0.781,1.893-0.781
				c0.745,0,1.381,0.26,1.905,0.781c0.525,0.524,0.788,1.156,0.788,1.897C150.68,127.813,150.418,128.448,149.893,128.976
				 M146.354,125.435c-0.448,0.452-0.674,0.996-0.674,1.637c0,0.645,0.225,1.194,0.671,1.647c0.448,0.454,0.994,0.681,1.636,0.681
				c0.644,0,1.188-0.227,1.637-0.681c0.45-0.454,0.674-1.002,0.674-1.647c0-0.642-0.224-1.185-0.674-1.637
				c-0.452-0.455-0.996-0.682-1.637-0.682C147.353,124.753,146.809,124.98,146.354,125.435 M147.938,125.585
				c0.366,0,0.635,0.034,0.806,0.105c0.305,0.126,0.458,0.376,0.458,0.749c0,0.263-0.098,0.458-0.289,0.583
				c-0.101,0.066-0.244,0.115-0.426,0.143c0.233,0.036,0.398,0.134,0.507,0.289c0.106,0.157,0.16,0.308,0.16,0.458v0.216
				c0,0.066,0.001,0.142,0.008,0.22c0.004,0.078,0.011,0.129,0.024,0.153l0.018,0.037h-0.484c-0.004-0.01-0.007-0.019-0.009-0.03
				c-0.003-0.008-0.006-0.02-0.008-0.033l-0.012-0.094v-0.234c0-0.34-0.093-0.565-0.277-0.675c-0.11-0.063-0.303-0.095-0.58-0.095
				h-0.409v1.162h-0.521v-2.952H147.938z M148.5,126.05c-0.134-0.073-0.341-0.109-0.632-0.109h-0.443v1.068h0.47
				c0.221,0,0.387-0.021,0.496-0.066c0.202-0.081,0.304-0.232,0.304-0.46C148.695,126.269,148.629,126.123,148.5,126.05"/>
		</g>
	</g>
	<g>
		<path fill="#FFFFFF" d="M210.882,277.668c0.82,24.273,20.631,43.734,45.104,43.734c24.473,0,44.283-19.462,45.103-43.734H210.882z
			"/>
		<path fill="none" stroke="#FFFFFF" stroke-width="5" stroke-miterlimit="10" d="M339.435,277.668
			c-0.82,45.421-37.833,82.005-83.449,82.005c-45.618,0-82.63-36.583-83.45-82.005h-45.113v15.896c0,3.051,2.473,5.525,5.522,5.525
			h15.375c2.839,13.376,8.134,25.824,15.347,36.924l-10.91,10.908c-2.158,2.158-2.158,5.656,0,7.813l24.634,24.636
			c2.158,2.158,5.656,2.158,7.814,0l10.911-10.91c11.098,7.213,23.545,12.51,36.922,15.346v15.376c0,3.052,2.474,5.523,5.525,5.523
			h34.839c3.051,0,5.523-2.472,5.523-5.523v-15.376c13.377-2.838,25.827-8.134,36.925-15.346l10.909,10.91
			c2.158,2.158,5.656,2.158,7.813,0l24.635-24.636c2.157-2.157,2.157-5.655,0-7.813L348.3,336.014
			c7.211-11.1,12.508-23.548,15.346-36.924h15.375c3.052,0,5.524-2.475,5.524-5.525v-15.896H339.435z"/>
		<path fill="#FFFFFF" d="M330.997,277.668c-0.82,40.76-34.056,73.564-75.013,73.564c-40.956,0-74.192-32.803-75.011-73.564h-8.437
			c0.82,45.421,37.833,82.005,83.45,82.005c45.616,0,82.628-36.583,83.449-82.005H330.997z"/>
		<rect x="72.038" y="263.615" fill="#FFFFFF" width="367.924" height="14.051"/>
	</g>
</g>
</svg>
